Tiesto feat. Nelly Furtado - Who Wants To Be Alone-music video mp4
[img]http://bender1.zikuka.com/img/2010/01/26/ea82ca1cd166649f763e6a34eb1feb2f/image30275703.jpg[/img]

[img]http://bender1.zikuka.com/img/2010/01/26/b1ae0c7fbb854a1d1f53708389a002a7/image30278453.jpg[/img]

[img]http://bender1.zikuka.com/img/2010/01/26/2e6eabea14639aecd752dc8e8fdf328f/image30280625.jpg[/img]

[img]http://bender1.zikuka.com/img/2010/01/26/c2213121b2547f805e83db67a811c8c8/image30283218.jpg[/img]

[img]http://bender1.zikuka.com/img/2010/01/26/497a02a076437b4bcc89b5da577d7caf/image30285906.jpg[/img]

[img]http://bender1.zikuka.com/img/2010/01/26/1333a4dfbed6ec80d276778c48a7d512/image30287859.jpg[/img]

[img]http://bender1.zikuka.com/img/2010/01/26/017077dab7bff867a48c84318de035a4/image30289937.jpg[/img]

[img]http://bender1.zikuka.com/img/2010/01/26/ec41d18a8c5fb68b179f36fefc23621a/image30292796.jpg[/img]

[img]http://bender1.zikuka.com/img/2010/01/26/51082c0013031ec44c363cf45c770384/image30295093.jpg[/img]

[img]http://bender1.zikuka.com/img/2010/01/26/3bf87c65826c57f2d868df75e2e3568e/image30297656.jpg[/img]

[img]http://bender1.zikuka.com/img/2010/01/26/7db37c0a9e5c687ee081e833a0a46357/image30301156.jpg[/img]

[img]http://bender1.zikuka.com/img/2010/01/26/79e5b9ee2ea09e950944dd95a0fd5997/image30303546.jpg[/img]

[img]http://bender1.zikuka.com/img/2010/01/26/4c5f36361fcb053d19de18ff89365317/image30306031.jpg[/img]

[img]http://bender1.zikuka.com/img/2010/01/26/fd20cf71f1c298e79663c60848182384/image30308468.jpg[/img]

[img]http://bender1.zikuka.com/img/2010/01/26/d3e5b1a495cf77bb48f357d38dd1ab75/image30311515.jpg[/img]

[img]http://bender1.zikuka.com/img/2010/01/26/714e1e7cb1b11492e3b78d81b41dd5a0/image30314484.jpg[/img]

[img]http://bender1.zikuka.com/img/2010/01/26/ce8ee2b2fa1e1e8048a9480044f86224/image30316906.jpg[/img]

[img]http://bender1.zikuka.com/img/2010/01/26/dd92cdcdf68f305987aa367c23a6107c/image30319656.jpg[/img] 
http://bender1.zikuka.com/img/2010/01/26/ea82ca1cd166649f763e6a34eb1feb2f/image30275703.jpg 
http://bender1.zikuka.com/img/2010/01/26/b1ae0c7fbb854a1d1f53708389a002a7/image30278453.jpg 
http://bender1.zikuka.com/img/2010/01/26/2e6eabea14639aecd752dc8e8fdf328f/image30280625.jpg 
http://bender1.zikuka.com/img/2010/01/26/c2213121b2547f805e83db67a811c8c8/image30283218.jpg 
http://bender1.zikuka.com/img/2010/01/26/497a02a076437b4bcc89b5da577d7caf/image30285906.jpg 
http://bender1.zikuka.com/img/2010/01/26/1333a4dfbed6ec80d276778c48a7d512/image30287859.jpg 
http://bender1.zikuka.com/img/2010/01/26/017077dab7bff867a48c84318de035a4/image30289937.jpg 
http://bender1.zikuka.com/img/2010/01/26/ec41d18a8c5fb68b179f36fefc23621a/image30292796.jpg 
http://bender1.zikuka.com/img/2010/01/26/51082c0013031ec44c363cf45c770384/image30295093.jpg 
http://bender1.zikuka.com/img/2010/01/26/3bf87c65826c57f2d868df75e2e3568e/image30297656.jpg 
http://bender1.zikuka.com/img/2010/01/26/7db37c0a9e5c687ee081e833a0a46357/image30301156.jpg 
http://bender1.zikuka.com/img/2010/01/26/79e5b9ee2ea09e950944dd95a0fd5997/image30303546.jpg 
http://bender1.zikuka.com/img/2010/01/26/4c5f36361fcb053d19de18ff89365317/image30306031.jpg 
http://bender1.zikuka.com/img/2010/01/26/fd20cf71f1c298e79663c60848182384/image30308468.jpg 
http://bender1.zikuka.com/img/2010/01/26/d3e5b1a495cf77bb48f357d38dd1ab75/image30311515.jpg 
http://bender1.zikuka.com/img/2010/01/26/714e1e7cb1b11492e3b78d81b41dd5a0/image30314484.jpg 
http://bender1.zikuka.com/img/2010/01/26/ce8ee2b2fa1e1e8048a9480044f86224/image30316906.jpg 
http://bender1.zikuka.com/img/2010/01/26/dd92cdcdf68f305987aa367c23a6107c/image30319656.jpg
Format                           : MPEG-4
Format profile                   : Base Media / Version 2
Codec ID                         : mp42
File size                        : 70.5 MiB
Duration                         : 4mn 45s
Overall bit rate                 : 2 074 Kbps
Encoded date                     : UTC 2010-01-17 17:26:27
Tagged date                      : UTC 2010-01-17 17:26:27
gsst                             : 0
gstd                             : 285743
gssd                             : BCCF6E807HH

Video
Format                           : AVC
Format/Info                      : Advanced Video Codec
Format profile                   : High@L3.1
Format settings, CABAC           : Yes
Format settings, ReFrames        : 3 frames
Codec ID                         : avc1
Codec ID/Info                    : Advanced Video Coding
Duration                         : 4mn 45s
Bit rate mode                    : Variable
Bit rate                         : 1 945 Kbps
Maximum bit rate                 : 4 269 Kbps
Width                            : 1 280 pixels
Height                           : 720 pixels
Display aspect ratio             : 16/9
Frame rate mode                  : Constant
Frame rate                       : 23.976 fps
Resolution                       : 24 bits
Colorimetry                      : 4:2:0
Scan type                        : Progressive
Bits/(Pixel*Frame)               : 0.088
Stream size                      : 66.2 MiB (94%)
Title                            : (C) 2007 Google Inc. v08.13.2007.
Encoded date                     : UTC 2010-01-17 17:26:28
Tagged date                      : UTC 2010-01-17 17:26:28

Audio
Format                           : AAC
Format/Info                      : Advanced Audio Codec
Format version                   : Version 4
Format profile                   : LC
Format settings, SBR             : No
Codec ID                         : 40
Duration                         : 4mn 45s
Bit rate mode                    : Variable
Bit rate                         : 126 Kbps
Maximum bit rate                 : 256 Kbps
Channel(s)                       : 2 channels
Channel positions                : L R
Sampling rate                    : 44.1 KHz
Resolution                       : 16 bits
Stream size                      : 4.28 MiB (6%)
Title                            : (C) 2007 Google Inc. v08.13.2007.
Encoded date                     : UTC 2010-01-17 17:26:27
Tagged date                      : UTC 2010-01-17 17:26:28
Credits to org poster,screens and seedboxes by silverdust

A simple thankyou ensures my seedboxes are given priority on this file!(you will get the file faster)
No thanks=No re-seeds,No help~No worries i can't be arsed either.
Screens are posted for this file,how-ever some sites do not allow all picture hosts(and i do not have time upload pics to a certain host for a specific site).
I will not respond in this thread to any comments from now on(unless you are a member of a private site or are a respected member of a public site).
Thankyou to all the REAL contributors to the sites who keep the faith everyday.
Leechers,Ass-wipes,Zero posters keep on moaning into our deaf ears.
Contact? Old Skool-respected only (you know how);-)
[url]http://www.fhqhosting.com/ui/1ggggg.swf[/url]
[IMG]http://i43.servimg.com/u/f43/12/33/79/02/potpis10.gif[/IMG]
[IMG]http://www.myspaceninja.com/images/gg/glitterhkisses.gif[/IMG]